<svg xmlns="http://www.w3.org/2000/svg" width="78.175" height="67.447" viewBox="0 0 78.175 67.447">
  <g id="Grupo_164310" data-name="Grupo 164310" transform="translate(9299.137 2627.614)">
    <g id="Grupo_164309" data-name="Grupo 164309" transform="translate(-89.046 3.832)">
      <path id="Trazado_95094" data-name="Trazado 95094" d="M-9209.137-2620.431h76.221" transform="translate(0 -2)" fill="none" stroke="#fff" stroke-width="0.3"/>
      <path id="Trazado_95095" data-name="Trazado 95095" d="M-9209.137-2620.431h76.221" transform="translate(0 9)" fill="none" stroke="#fff" stroke-width="0.3"/>
      <path id="Trazado_95096" data-name="Trazado 95096" d="M-9209.137-2620.431h76.221" transform="translate(0 19)" fill="none" stroke="#fff" stroke-width="0.3"/>
      <path id="Trazado_95097" data-name="Trazado 95097" d="M-9209.137-2620.431h76.221" transform="translate(0 29)" fill="none" stroke="#fff" stroke-width="0.3"/>
      <path id="Trazado_95098" data-name="Trazado 95098" d="M-9209.137-2620.431h76.221" transform="translate(0 39)" fill="none" stroke="#fff" stroke-width="0.3"/>
      <path id="Trazado_95099" data-name="Trazado 95099" d="M-9209.137-2620.431h76.221" transform="translate(0 49)" fill="none" stroke="#fff" stroke-width="0.3"/>
      <path id="Trazado_95101" data-name="Trazado 95101" d="M-9209.137-2620.431h65.447" transform="translate(-11819.457 6579.19) rotate(90)" fill="none" stroke="#fff" stroke-width="0.3"/>
      <path id="Trazado_95102" data-name="Trazado 95102" d="M-9209.137-2620.431h65.447" transform="translate(-11809.457 6579.19) rotate(90)" fill="none" stroke="#fff" stroke-width="0.3"/>
      <path id="Trazado_95103" data-name="Trazado 95103" d="M-9209.137-2620.431h65.447" transform="translate(-11799.457 6579.19) rotate(90)" fill="none" stroke="#fff" stroke-width="0.3"/>
      <path id="Trazado_95104" data-name="Trazado 95104" d="M-9209.137-2620.431h65.447" transform="translate(-11789.457 6579.19) rotate(90)" fill="none" stroke="#fff" stroke-width="0.3"/>
      <path id="Trazado_95105" data-name="Trazado 95105" d="M-9209.137-2620.431h65.447" transform="translate(-11779.457 6579.19) rotate(90)" fill="none" stroke="#fff" stroke-width="0.3"/>
      <path id="Trazado_95106" data-name="Trazado 95106" d="M-9209.137-2620.431h65.447" transform="translate(-11769.457 6579.19) rotate(90)" fill="none" stroke="#fff" stroke-width="0.3"/>
      <path id="Trazado_95107" data-name="Trazado 95107" d="M-9209.137-2620.431h65.447" transform="translate(-11759.457 6579.19) rotate(90)" fill="none" stroke="#fff" stroke-width="0.3"/>
    </g>
    <path id="Trazado_95092" data-name="Trazado 95092" d="M79.445,36.292H78.312c-.263,0-.476-.325-.476-.726s.213-.726.476-.726h1.133c.263,0,.476.325.476.726S79.708,36.292,79.445,36.292Z" transform="translate(-9306.071 -2629.682)" fill="#fff" stroke="#fff" stroke-width="0.5"/>
    <g id="Grupo_164308" data-name="Grupo 164308" transform="translate(-89 3.332)">
      <path id="Trazado_95090" data-name="Trazado 95090" d="M71.625,32.278H47.72L44.664,43.213a.476.476,0,0,1-.931-.077L42.1,27.964,37.585,60.251a.463.463,0,0,1-.486.409.476.476,0,0,1-.461-.437L32.271,6.763,25.436,44.69a.476.476,0,0,1-.936,0L21.379,27.535,19.277,32a.477.477,0,0,1-.431.274H7.688a.476.476,0,1,1,0-.952H18.544l2.606-5.542a.476.476,0,0,1,.9.117l2.916,16.034L31.981,3.009a.469.469,0,0,1,.492-.39.474.474,0,0,1,.451.437l4.315,52.808,4.456-31.843a.469.469,0,0,1,.478-.41.477.477,0,0,1,.466.426l1.776,16.535,2.487-8.9a.475.475,0,0,1,.459-.347H71.6Z" transform="translate(-9210.368 -2629.232)" fill="none" stroke="#fff" stroke-width="1"/>
      <rect id="Rectángulo_149145" data-name="Rectángulo 149145" width="76.175" height="65.447" rx="4.982" transform="translate(-9209.137 -2629.946)" fill="none" stroke="#fff" stroke-width="2"/>
    </g>
  </g>
</svg>
