<svg id="Grupo_164082" data-name="Grupo 164082" xmlns="http://www.w3.org/2000/svg" xmlns:xlink="http://www.w3.org/1999/xlink" width="63.656" height="65.714" viewBox="0 0 63.656 65.714">
  <defs>
    <clipPath id="clip-path">
      <rect id="Rectángulo_149019" data-name="Rectángulo 149019" width="63.657" height="65.714" fill="none"/>
    </clipPath>
  </defs>
  <g id="Grupo_164018" data-name="Grupo 164018" clip-path="url(#clip-path)">
    <path id="Trazado_85958" data-name="Trazado 85958" d="M42.728,65.714a24.209,24.209,0,0,1-2.629-.7,12.11,12.11,0,0,1-8.153-10.321.784.784,0,0,0-.339-.525,3.037,3.037,0,0,1-1.783-3.073,1.77,1.77,0,0,0-1.113-1.948c-2.63-1.428-3.745-3.86-4.2-6.729-.805-5.114-1.652-10.222-2.6-15.312a25.448,25.448,0,0,0-1.436-4.154.737.737,0,0,0-.556-.372c-2.436-.025-4.873-.01-7.309-.024-.381,0-.487.157-.583.5a5.99,5.99,0,0,1-4.486,4.453A6.114,6.114,0,0,1,.2,20.142a5.843,5.843,0,0,1,4.785-4.529,5.823,5.823,0,0,1,6.35,2.832,14.627,14.627,0,0,1,.743,1.754c.077.165.294.376.449.377,2.2.025,4.4.017,6.717.017-.131-.262-.223-.459-.326-.65-1.181-2.2-2.386-4.383-3.541-6.595A7.517,7.517,0,0,1,20.142,2.339c.451-.117.917-.176,1.346-.257a6.214,6.214,0,0,1,.5-1.167,1.545,1.545,0,0,1,.821-.668,6.814,6.814,0,0,1,4.259.188,2.937,2.937,0,0,1,1.52,3.407,3.029,3.029,0,0,1-2.853,2.25c-.491.012-.983.008-1.475.008-1.786,0-2.176-.277-2.741-1.944A5.475,5.475,0,0,0,16.414,8.99a6.345,6.345,0,0,0,.8,3.683c1.406,2.585,2.765,5.2,4.2,7.765a26.345,26.345,0,0,1,2.976,9.117c.32,2.147.655,4.3,1.152,6.412a7.539,7.539,0,0,0,9.067,5.319c3.468-.928,5.352-3.272,5.963-7.09a60.069,60.069,0,0,1,1.9-9.71c.147-.441.309-.876.51-1.443a31.209,31.209,0,0,0-3.322-.4c-4.444-.065-8.89-.062-13.335-.086-.256,0-.512-.011-.767-.036a.891.891,0,0,1-.865-.939.927.927,0,0,1,.8-.947,2.892,2.892,0,0,1,.637-.042c3.89,0,7.781-.062,11.669.025,1.846.041,3.687.352,5.526.572.366.044.576.011.765-.345C45.6,18,47.165,15.189,48.65,12.332a5.541,5.541,0,0,0-3.211-7.987,10.523,10.523,0,0,0-1.253-.262c-.069.241-.119.423-.174.6A1.648,1.648,0,0,1,42.662,6a13.087,13.087,0,0,1-3.615-.1,2.842,2.842,0,0,1-1.96-3.377A3,3,0,0,1,39.967.07C40.48.06,41,.1,41.506.062a2.207,2.207,0,0,1,2.68,2.04,7.651,7.651,0,0,1,4.663,1.993,7.509,7.509,0,0,1,1.432,9.361c-1.385,2.6-2.753,5.2-4.2,7.766a25.658,25.658,0,0,0-2.86,8.755c-.749,4.734-1.528,9.466-2.434,14.171A7.364,7.364,0,0,1,36.564,49.4a.984.984,0,0,0-.671,1.105,6.346,6.346,0,0,1-.064,1.339,2.837,2.837,0,0,1-1.561,2.209c-.271.146-.417.267-.371.622a10.4,10.4,0,0,0,11.279,9.051,17.359,17.359,0,0,0,12.35-6.186,16.525,16.525,0,0,0,3.934-8.674A23.464,23.464,0,0,0,48.743,25.153c-.267-.134-.538-.261-.8-.408a.986.986,0,0,1-.51-1.386.948.948,0,0,1,1.385-.338,43.972,43.972,0,0,1,4.692,2.852,24.982,24.982,0,0,1,9.5,14.82A20.512,20.512,0,0,1,61.775,54.5,19.168,19.168,0,0,1,48.629,65.184c-.927.233-1.881.356-2.823.529ZM39.366,41.074c-4.342,3.216-8.67,3.215-13.1-.051.193.962.335,1.856.554,2.732a6.306,6.306,0,0,0,9.5,3.562c2.225-1.513,2.823-3.766,3.045-6.243M6.12,25.71a4.134,4.134,0,0,0,4.155-4.137A4.189,4.189,0,0,0,6.1,17.424a4.22,4.22,0,0,0-4.135,4.132A4.163,4.163,0,0,0,6.12,25.71M31.806,50.275c.065.734-.28,1.523.494,1.961a1.317,1.317,0,0,0,1.112,0c.765-.443.427-1.228.483-1.948-.385.018-.7.046-1.014.045s-.638-.03-1.075-.053" transform="translate(0 0)" fill="#fff"/>
    <path id="Trazado_85959" data-name="Trazado 85959" d="M36.081,154.366a1.958,1.958,0,0,1-1.957,2,1.987,1.987,0,0,1-2.035-2,2,2,0,0,1,3.993,0" transform="translate(-27.967 -132.8)" fill="#fff"/>
  </g>
</svg>
