<svg xmlns="http://www.w3.org/2000/svg" xmlns:xlink="http://www.w3.org/1999/xlink" width="368" height="138" viewBox="0 0 368 138">
  <defs>
    <linearGradient id="linear-gradient" x1="0.5" y1="1" x2="0.5" gradientUnits="objectBoundingBox">
      <stop offset="0" stop-color="#05294f"/>
      <stop offset="0.238" stop-color="#004990"/>
      <stop offset="1" stop-color="#3fb2c9"/>
      <stop offset="1" stop-color="#6cb2f1"/>
    </linearGradient>
    <filter id="Trazado_85999" x="0" y="0" width="368" height="138" filterUnits="userSpaceOnUse">
      <feOffset dy="3" input="SourceAlpha"/>
      <feGaussianBlur stdDeviation="3" result="blur"/>
      <feFlood flood-opacity="0.161"/>
      <feComposite operator="in" in2="blur"/>
      <feComposite in="SourceGraphic"/>
    </filter>
    <clipPath id="clip-path">
      <rect id="Rectángulo_149080" data-name="Rectángulo 149080" width="60.963" height="56.101" fill="#fff"/>
    </clipPath>
  </defs>
  <g id="Grupo_165172" data-name="Grupo 165172" transform="translate(-1403 -695)">
    <g transform="matrix(1, 0, 0, 1, 1403, 695)" filter="url(#Trazado_85999)">
      <path id="Trazado_85999-2" data-name="Trazado 85999" d="M15,120H335a15,15,0,0,0,15-15V15A15,15,0,0,0,335,0H15A15,15,0,0,0,0,15v90A15,15,0,0,0,15,120Z" transform="translate(9 6)" fill="url(#linear-gradient)"/>
    </g>
    <text id="Atención_al_paciente" data-name="Atención
al paciente" transform="translate(1549.351 723)" fill="#fff" font-size="30" font-family="Assistant" font-weight="600"><tspan x="-56" y="31">Atención</tspan><tspan x="-69" y="63">al paciente</tspan></text>
    <g id="Grupo_164212" data-name="Grupo 164212" transform="translate(1457.414 731)">
      <g id="Grupo_164211" data-name="Grupo 164211" clip-path="url(#clip-path)">
        <path id="Trazado_86066" data-name="Trazado 86066" d="M299.681,31.892c0-.614,0-1.228,0-1.841A31.114,31.114,0,0,0,297.868,18.5q-2.986-7.777-6.317-15.419a4.982,4.982,0,0,0-7.62-2.093,5.07,5.07,0,0,0-1.586,6.31c1.077,2.55,2.177,5.09,3.265,7.636.769,1.8,1.526,3.605,2.306,5.4a1.2,1.2,0,0,0,1.914.624c.466-.376.554-.883.245-1.615-.863-2.039-1.737-4.074-2.606-6.111-.986-2.31-1.981-4.615-2.953-6.93A2.668,2.668,0,0,1,285.9,2.6a2.718,2.718,0,0,1,3.63,1.715c1.7,4.069,3.368,8.15,5.079,12.213a30.932,30.932,0,0,1,2.59,10.785c.106,2.59.073,5.185.1,7.778,0,.416-.016.833.018,1.246a1.124,1.124,0,0,0,.787,1.018.983.983,0,0,0,1.188-.286,2.031,2.031,0,0,0,.371-1.08c.042-1.365.017-2.732.017-4.1" transform="translate(-239.915 0)" fill="#fff"/>
        <path id="Trazado_86067" data-name="Trazado 86067" d="M101.21,338.634a1.184,1.184,0,1,0-1.185-1.158,1.2,1.2,0,0,0,1.185,1.158" transform="translate(-85.138 -286.218)" fill="#fff"/>
        <path id="Trazado_86068" data-name="Trazado 86068" d="M294.888,338.648a1.2,1.2,0,0,0,1.139-1.2,1.184,1.184,0,0,0-2.367.013,1.238,1.238,0,0,0,1.228,1.191" transform="translate(-249.953 -286.231)" fill="#fff"/>
        <path id="Trazado_86069" data-name="Trazado 86069" d="M386.774,271.021a1.189,1.189,0,0,0,1.205-1.142,1.181,1.181,0,0,0-2.362-.044,1.179,1.179,0,0,0,1.157,1.186" transform="translate(-328.224 -228.691)" fill="#fff"/>
        <path id="Trazado_86070" data-name="Trazado 86070" d="M0,46.052l1.025-1.03.171.1v-.7c0-4.536.057-9.073-.015-13.608a37.607,37.607,0,0,1,3.18-15.876c1.664-3.805,3.2-7.665,4.8-11.5A5.143,5.143,0,0,1,13.014.166a5.019,5.019,0,0,1,5.8,6.3c-.583,1.78-1.4,3.484-2.132,5.213Q14.854,15.994,13,20.3c-.344.8-.84,1.1-1.494.935a1.109,1.109,0,0,1-.838-1.406,14.5,14.5,0,0,1,.586-1.489q2.548-5.977,5.1-11.953a2.7,2.7,0,1,0-4.915-2.2c-.72,1.649-1.4,3.318-2.079,4.983C8,12.477,6.584,15.767,5.323,19.115a29.092,29.092,0,0,0-1.74,10.249c-.015,5.071,0,10.142,0,15.213,0,.173.019.346.03.55H19.442c.026-.039.047-.055.047-.072-.046-3.258.348-6.532-.317-9.766a10.338,10.338,0,0,0-1.89-4.19q-2.1-2.771-4.3-5.467a2.057,2.057,0,0,0-3.588.42A2.162,2.162,0,0,0,9.7,28.188c1.159,1.727,2.306,3.461,3.458,5.193.2.3.408.586.587.894a1.2,1.2,0,0,1-.287,1.686,1.169,1.169,0,0,1-1.7-.4C10.322,33.422,8.866,31.3,7.5,29.117a4.429,4.429,0,0,1,7.137-5.2c1.749,2.124,3.483,4.274,5.044,6.536a13.492,13.492,0,0,1,2.228,7.822q0,3.09,0,6.18v.631c1.026.4,1.19.645,1.191,1.739q0,3.863,0,7.725a2.928,2.928,0,0,1-.065.705,1.156,1.156,0,0,1-2.25-.012,3.027,3.027,0,0,1-.061-.706q-.006-3.149,0-6.3v-.671H2.381v.641c0,2.179.008,4.358,0,6.537-.006,1.071-.9,1.726-1.715,1.242C.384,55.825.218,55.471,0,55.2V46.052" transform="translate(0 -0.051)" fill="#fff"/>
        <path id="Trazado_86071" data-name="Trazado 86071" d="M277.457,182.836c-.218.268-.384.622-.663.787-.816.484-1.709-.171-1.715-1.241-.011-2.159,0-4.317,0-6.476v-.69H256.739v1.366c0,1.921,0,3.842,0,5.763a1.25,1.25,0,0,1-.94,1.4,1.178,1.178,0,0,1-1.43-1.191c-.031-.732-.009-1.465-.009-2.2q0-2.971,0-5.941c0-1.039.19-1.312,1.19-1.682,0-2.218-.058-4.455.022-6.687a22.388,22.388,0,0,1,.5-4.05,12.49,12.49,0,0,1,2.374-4.94c1.432-1.847,2.86-3.7,4.362-5.491a4.155,4.155,0,0,1,4.458-1.388,4.224,4.224,0,0,1,3.208,3.252,3.967,3.967,0,0,1-.444,3.209c-1.42,2.217-2.887,4.4-4.358,6.589a1.153,1.153,0,0,1-1.66.379,1.205,1.205,0,0,1-.248-1.779q1.974-3,3.979-5.986a2.257,2.257,0,0,0,.388-1.967,2.066,2.066,0,0,0-3.273-1,2.753,2.753,0,0,0-.416.423c-1.366,1.723-2.754,3.43-4.083,5.181a11.8,11.8,0,0,0-2.421,7.128c-.032,2.257-.009,4.515-.009,6.773,0,.115.015.231.028.42h.776q8.541,0,17.082-.007a1.554,1.554,0,0,1,1.639.9Z" transform="translate(-216.494 -127.684)" fill="#fff"/>
        <path id="Trazado_86072" data-name="Trazado 86072" d="M121.148,80.893a8.21,8.21,0,0,1,6.072-7.963,6.965,6.965,0,0,1,5.913,1.215.626.626,0,0,0,.878.041c3.985-2.908,9.083-1.26,11.135,3.022a7.9,7.9,0,0,1-.784,8.361,35.87,35.87,0,0,1-7.63,7.692c-.759.6-1.554,1.164-2.334,1.741a1.237,1.237,0,0,1-1.592.006,44.586,44.586,0,0,1-9.056-8.184,11.367,11.367,0,0,1-2.342-4.357c-.126-.515-.175-1.049-.26-1.574m2.432.32a6.524,6.524,0,0,0,1.5,3.407,36.9,36.9,0,0,0,8.253,7.818.6.6,0,0,0,.549-.011c.556-.378,1.091-.792,1.616-1.214a35.323,35.323,0,0,0,6.68-6.647,5.836,5.836,0,0,0,.654-6.659,4.992,4.992,0,0,0-7.814-1.492c-1.287,1.2-1.546,1.2-2.846-.012-.043-.04-.084-.085-.131-.121a4.731,4.731,0,0,0-3.87-1.122c-2.65.46-4.52,2.812-4.589,6.053" transform="translate(-103.117 -61.895)" fill="#fff"/>
        <path id="Trazado_86073" data-name="Trazado 86073" d="M299.681,31.892c0,1.366.025,2.733-.017,4.1a2.03,2.03,0,0,1-.371,1.08.982.982,0,0,1-1.188.286,1.124,1.124,0,0,1-.787-1.018c-.034-.413-.014-.831-.018-1.246-.029-2.593,0-5.188-.1-7.778a30.931,30.931,0,0,0-2.59-10.785c-1.712-4.063-3.383-8.143-5.079-12.213A2.718,2.718,0,0,0,285.9,2.6a2.668,2.668,0,0,0-1.384,3.707c.972,2.315,1.967,4.621,2.953,6.93.869,2.037,1.743,4.071,2.607,6.111.31.731.221,1.239-.245,1.615a1.2,1.2,0,0,1-1.914-.624c-.78-1.8-1.537-3.6-2.306-5.4-1.088-2.546-2.187-5.086-3.265-7.636a5.07,5.07,0,0,1,1.586-6.31,4.982,4.982,0,0,1,7.62,2.093q3.321,7.64,6.317,15.419a31.114,31.114,0,0,1,1.814,11.546c-.006.614,0,1.228,0,1.841" transform="translate(-239.915 0)" fill="#fff"/>
        <path id="Trazado_86074" data-name="Trazado 86074" d="M101.21,338.634a1.2,1.2,0,0,1-1.185-1.158,1.186,1.186,0,1,1,1.185,1.158" transform="translate(-85.138 -286.218)" fill="#fff"/>
        <path id="Trazado_86075" data-name="Trazado 86075" d="M294.888,338.648a1.238,1.238,0,0,1-1.228-1.191,1.184,1.184,0,0,1,2.367-.013,1.2,1.2,0,0,1-1.139,1.2" transform="translate(-249.953 -286.231)" fill="#fff"/>
        <path id="Trazado_86076" data-name="Trazado 86076" d="M386.774,271.021a1.179,1.179,0,0,1-1.157-1.186,1.181,1.181,0,0,1,2.362.044,1.189,1.189,0,0,1-1.205,1.142" transform="translate(-328.224 -228.691)" fill="#fff"/>
      </g>
    </g>
  </g>
</svg>
