<svg id="Grupo_164020" data-name="Grupo 164020" xmlns="http://www.w3.org/2000/svg" width="56.001" height="56.089" viewBox="0 0 56.001 56.089">
  <path id="Trazado_85971" data-name="Trazado 85971" d="M797.493,176.889V130.44a.522.522,0,0,0,.1-.126,3.268,3.268,0,0,1,3.5-2.5h1.43c0-.27.008-.468,0-.666a3.46,3.46,0,0,1,2.625-3.717h1.312a1.679,1.679,0,0,0,.232.12,3.264,3.264,0,0,1,2.391,3.321c0,.3,0,.606,0,.9h6.562c0-.235.008-.434,0-.631a3.459,3.459,0,0,1,2.625-3.714h1.312a1.687,1.687,0,0,0,.232.12,3.264,3.264,0,0,1,2.391,3.321c0,.3,0,.606,0,.9h6.562c0-.235.008-.434,0-.631a3.459,3.459,0,0,1,2.625-3.714H832.7a1.676,1.676,0,0,0,.232.12,3.264,3.264,0,0,1,2.391,3.321c0,.3,0,.606,0,.9h6.562c0-.235.008-.434,0-.631a3.459,3.459,0,0,1,2.625-3.714h1.312a1.687,1.687,0,0,0,.232.12,3.266,3.266,0,0,1,2.391,3.328c0,.3,0,.6,0,.935.529,0,.984.027,1.435,0a3.417,3.417,0,0,1,3.615,3.6c-.048,9.45-.021,18.9-.021,28.352q0,8.183,0,16.365a3.231,3.231,0,0,1-1.932,3.1c-.224.11-.46.195-.69.291H800.117c-.262-.111-.526-.217-.784-.335a3.649,3.649,0,0,1-1.84-2.294m2.2-37.442c-.008.136-.016.209-.016.281q0,18.1,0,36.2c0,1,.439,1.4,1.52,1.4h48.54c1.154,0,1.545-.389,1.545-1.538q0-17.882,0-35.764v-.578Zm42.194-9.407H830.949c0,.384,0,.73,0,1.075.009.9.3,1.241,1.183,1.411a1.1,1.1,0,0,1,.995,1.214,1.113,1.113,0,0,1-1.241.968,3.279,3.279,0,0,1-3.115-3.084c-.02-.524,0-1.049,0-1.59h-10.94c0,.395,0,.757,0,1.119A1.2,1.2,0,0,0,819,132.525a1.1,1.1,0,0,1,1.012,1.2,1.109,1.109,0,0,1-1.225.985,3.277,3.277,0,0,1-3.131-3.067c-.022-.538,0-1.079,0-1.612h-10.94c0,.332,0,.638,0,.944,0,1.06.231,1.344,1.26,1.562a1.095,1.095,0,0,1-.179,2.176,3.277,3.277,0,0,1-3.261-3.161c-.013-.5,0-1.008,0-1.547-.543,0-1.014-.006-1.484,0-.929.014-1.354.446-1.36,1.392-.007,1.077,0,2.154,0,3.231V137.2h51.6c0-2.037.02-4.042-.011-6.046-.011-.739-.486-1.13-1.26-1.148-.71-.017-1.421,0-2.132,0H844.07c0,.392,0,.734,0,1.076.006.938.284,1.273,1.2,1.45a1.1,1.1,0,0,1,.977,1.229,1.111,1.111,0,0,1-1.2.953,3.277,3.277,0,0,1-3.151-3.047c-.024-.527,0-1.055,0-1.622m-35.009-2.255c-.009-.735.21-1.5-.556-1.99a.943.943,0,0,0-1.166.083c-.629.526-.43,1.235-.43,1.907Zm13.143.005c-.051-.764.191-1.555-.612-2.015a.948.948,0,0,0-1.121.094c-.643.521-.435,1.235-.447,1.922Zm13.125,0c-.062-.742.186-1.509-.565-1.986a.953.953,0,0,0-1.168.06c-.649.516-.44,1.233-.451,1.926Zm13.118-.008c-.06-.73.2-1.512-.584-1.991a.947.947,0,0,0-1.167.089c-.621.529-.434,1.234-.419,1.9Z" transform="translate(-797.493 -123.429)" fill="#fff"/>
  <path id="Trazado_85972" data-name="Trazado 85972" d="M868.824,360.376c-1.384,0-2.768,0-4.152,0-.9,0-1.309-.4-1.31-1.291q-.005-4.188,0-8.376a1.119,1.119,0,0,1,1.261-1.285q4.207-.006,8.414,0a1.108,1.108,0,0,1,1.254,1.235q.008,4.243,0,8.485a1.109,1.109,0,0,1-1.26,1.23c-1.4.006-2.8,0-4.207,0m3.245-8.72h-6.494v6.506h6.494Z" transform="translate(-856.143 -324.663)" fill="#fff"/>
  <path id="Trazado_85973" data-name="Trazado 85973" d="M1014.021,354.959c0,1.369,0,2.737,0,4.106,0,.9-.4,1.314-1.285,1.316q-4.18.005-8.359,0c-.883,0-1.285-.413-1.286-1.315q0-4.16,0-8.321c0-.924.4-1.315,1.34-1.316q4.125,0,8.25,0c.956,0,1.339.394,1.341,1.37q0,2.08,0,4.16m-2.224-3.3H1005.3v6.506h6.494Z" transform="translate(-980.565 -324.669)" fill="#fff"/>
  <path id="Trazado_85974" data-name="Trazado 85974" d="M1142.814,354.841c0-1.387,0-2.774,0-4.16a1.109,1.109,0,0,1,1.231-1.258q4.234-.008,8.469,0a1.1,1.1,0,0,1,1.228,1.206q.01,4.27,0,8.54a1.1,1.1,0,0,1-1.23,1.2q-4.234.008-8.469,0a1.109,1.109,0,0,1-1.229-1.261c-.006-1.423,0-2.847,0-4.27m8.708-3.187h-6.494v6.506h6.494Z" transform="translate(-1104.982 -324.661)" fill="#fff"/>
  <path id="Trazado_85975" data-name="Trazado 85975" d="M874.291,474.9c0,1.387,0,2.774,0,4.16,0,.9-.4,1.312-1.288,1.313q-4.18.005-8.359,0a1.119,1.119,0,0,1-1.282-1.263q-.007-4.215,0-8.43a1.108,1.108,0,0,1,1.232-1.257q4.234-.008,8.469,0a1.109,1.109,0,0,1,1.228,1.262c.005,1.405,0,2.81,0,4.215m-2.21-3.251h-6.493v6.507h6.493Z" transform="translate(-856.142 -431.516)" fill="#fff"/>
  <path id="Trazado_85976" data-name="Trazado 85976" d="M1014.021,474.9c0,1.405,0,2.81,0,4.215a1.121,1.121,0,0,1-1.278,1.267q-4.18.006-8.359,0c-.889,0-1.291-.409-1.292-1.308q0-4.16,0-8.321c0-.925.4-1.322,1.334-1.322q4.125,0,8.25,0c.964,0,1.346.389,1.347,1.364q0,2.053,0,4.105m-8.72,3.258h6.494v-6.512H1005.3Z" transform="translate(-980.565 -431.523)" fill="#fff"/>
  <path id="Trazado_85977" data-name="Trazado 85977" d="M1148.281,480.38c-1.384,0-2.768,0-4.152,0-.9,0-1.312-.4-1.314-1.287q-.005-4.188,0-8.376c0-.886.412-1.288,1.311-1.289q4.153,0,8.3,0c.922,0,1.313.4,1.314,1.341q0,4.133,0,8.266c0,.959-.393,1.343-1.366,1.344q-2.049,0-4.1,0m3.255-8.725h-6.494v6.507h6.494Z" transform="translate(-1104.983 -431.521)" fill="#fff"/>
  <path id="Trazado_85978" data-name="Trazado 85978" d="M957.507,289.423h12.678a3.98,3.98,0,0,1,.545.015,1.091,1.091,0,0,1,0,2.159,4.029,4.029,0,0,1-.546.015H944.718a3.984,3.984,0,0,1-.545-.015,1.091,1.091,0,0,1,0-2.159,4.039,4.039,0,0,1,.545-.015h12.787" transform="translate(-927.274 -271.237)" fill="#fff"/>
  <path id="Trazado_85979" data-name="Trazado 85979" d="M905.5,290.533a1.09,1.09,0,1,1-1.085-1.069,1.09,1.09,0,0,1,1.085,1.069" transform="translate(-891.726 -271.275)" fill="#fff"/>
</svg>
