<svg id="Componente_223_1" data-name="Componente 223 – 1" xmlns="http://www.w3.org/2000/svg" xmlns:xlink="http://www.w3.org/1999/xlink" width="242" height="165" viewBox="0 0 242 165">
  <defs>
    <linearGradient id="linear-gradient" x1="0.5" x2="0.5" y2="1" gradientUnits="objectBoundingBox">
      <stop offset="0" stop-color="#05294f"/>
      <stop offset="0.222" stop-color="#02366b"/>
      <stop offset="0.473" stop-color="#034f9a"/>
      <stop offset="0.749" stop-color="#0062c1"/>
      <stop offset="1" stop-color="#3cceeb"/>
      <stop offset="1" stop-color="#6cb2f1"/>
    </linearGradient>
    <clipPath id="clip-path">
      <rect id="Rectángulo_148835" data-name="Rectángulo 148835" width="113.644" height="74.009" fill="none"/>
    </clipPath>
  </defs>
  <path id="Rectángulo_149027" data-name="Rectángulo 149027" d="M80,0H242a0,0,0,0,1,0,0V165a0,0,0,0,1,0,0H80A80,80,0,0,1,0,85V80A80,80,0,0,1,80,0Z" opacity="0.8" fill="url(#linear-gradient)"/>
  <g id="Grupo_163610" data-name="Grupo 163610" transform="translate(35.586 24.668)">
    <g id="Grupo_163609" data-name="Grupo 163609" clip-path="url(#clip-path)">
      <path id="Trazado_85577" data-name="Trazado 85577" d="M.75,74.545H4.2a7.953,7.953,0,0,1,4.113.933,3.439,3.439,0,0,1,1.559,3.214A3.833,3.833,0,0,1,8.439,82a6.3,6.3,0,0,1-3.811,1.051H3.479v5.209H.75Zm2.729,6.348h.955a3.4,3.4,0,0,0,1.891-.462,1.751,1.751,0,0,0,.7-1.583,1.871,1.871,0,0,0-.712-1.631,3.156,3.156,0,0,0-1.881-.511H3.479Z" transform="translate(-0.378 -37.576)" fill="#fff"/>
      <rect id="Rectángulo_148826" data-name="Rectángulo 148826" width="2.612" height="13.701" transform="translate(10.919 36.986)" fill="#fff"/>
      <rect id="Rectángulo_148827" data-name="Rectángulo 148827" width="2.612" height="13.701" transform="translate(87.292 36.986)" fill="#fff"/>
      <path id="Trazado_85578" data-name="Trazado 85578" d="M31.843,82.088a8.213,8.213,0,0,1,3.489-.766,4.588,4.588,0,0,1,3.313,1,4.447,4.447,0,0,1,1.014,3.263v3.833l.156,2.26h-2.3a5.378,5.378,0,0,1-.1-.777q-.019-.383-.02-.737a3.278,3.278,0,0,1-1.335,1.3,3.755,3.755,0,0,1-1.8.467,3.9,3.9,0,0,1-2.466-.808,2.64,2.64,0,0,1-1.043-2.208,3.247,3.247,0,0,1,.458-1.794A2.978,2.978,0,0,1,32.4,86.051a5.278,5.278,0,0,1,1.618-.493,12.752,12.752,0,0,1,1.823-.128h1.443a2.221,2.221,0,0,0-.537-1.68,2.47,2.47,0,0,0-1.725-.5,4.713,4.713,0,0,0-1.608.285,5.645,5.645,0,0,0-1.491.816Zm3.06,7.921a2.191,2.191,0,0,0,1.813-.89,2.547,2.547,0,0,0,.438-.95A5.036,5.036,0,0,0,37.281,87h-1.13a5.286,5.286,0,0,0-2.067.356,1.377,1.377,0,0,0-.839,1.4,1.06,1.06,0,0,0,.449.94,2.1,2.1,0,0,0,1.208.306" transform="translate(-15.501 -40.992)" fill="#fff"/>
      <path id="Trazado_85579" data-name="Trazado 85579" d="M53.162,81.558h2.476v1.376a3.808,3.808,0,0,1,1.442-1.228,4.415,4.415,0,0,1,1.891-.383A3.058,3.058,0,0,1,61.534,82.4a4.554,4.554,0,0,1,.848,2.889V91.68H59.77V86.275a6.256,6.256,0,0,0-.292-2.123,1.318,1.318,0,0,0-1.4-.786,1.826,1.826,0,0,0-1.783,1.042,5.143,5.143,0,0,0-.517,2.319V91.68H53.162Z" transform="translate(-26.798 -40.992)" fill="#fff"/>
      <path id="Trazado_85580" data-name="Trazado 85580" d="M89.026,87.122a3.617,3.617,0,0,1-1.374,1.067,4.406,4.406,0,0,1-1.745.329A3.572,3.572,0,0,1,82.721,87a6.681,6.681,0,0,1-1.024-3.82,6.576,6.576,0,0,1,1.014-3.8,3.6,3.6,0,0,1,3.2-1.477,3.705,3.705,0,0,1,3,1.4l.039-4.758H91.56v13.72H89.026Zm-2.388-.668a1.865,1.865,0,0,0,1.752-1.005,4.633,4.633,0,0,0,.558-2.287,4.309,4.309,0,0,0-.587-2.248,1.921,1.921,0,0,0-1.762-.986,1.735,1.735,0,0,0-1.664.986,4.829,4.829,0,0,0-.509,2.248,4.894,4.894,0,0,0,.519,2.3,1.768,1.768,0,0,0,1.693,1" transform="translate(-41.181 -37.575)" fill="#fff"/>
      <path id="Trazado_85581" data-name="Trazado 85581" d="M216.276,87.122a3.61,3.61,0,0,1-1.374,1.067,4.4,4.4,0,0,1-1.744.329A3.572,3.572,0,0,1,209.971,87a6.681,6.681,0,0,1-1.024-3.82,6.576,6.576,0,0,1,1.014-3.8,3.6,3.6,0,0,1,3.2-1.477,3.705,3.705,0,0,1,3,1.4l.039-4.758h2.612v13.72h-2.534Zm-2.388-.668a1.865,1.865,0,0,0,1.752-1.005,4.633,4.633,0,0,0,.558-2.287,4.308,4.308,0,0,0-.587-2.248,1.921,1.921,0,0,0-1.762-.986,1.735,1.735,0,0,0-1.664.986,4.83,4.83,0,0,0-.509,2.248,4.9,4.9,0,0,0,.518,2.3,1.769,1.769,0,0,0,1.694,1" transform="translate(-105.325 -37.575)" fill="#fff"/>
      <path id="Trazado_85582" data-name="Trazado 85582" d="M113.844,91.111a6.837,6.837,0,0,1-3.451.826,4.8,4.8,0,0,1-5.243-5.258,6,6,0,0,1,1.2-3.839,4.883,4.883,0,0,1,7.154.086,8.009,8.009,0,0,1,1.082,4.51h-6.939a2.353,2.353,0,0,0,.8,1.891,3.066,3.066,0,0,0,2.066.683,5.093,5.093,0,0,0,1.677-.27,9.979,9.979,0,0,0,1.657-.772Zm-1.755-5.483a2.647,2.647,0,0,0-.536-1.71,1.915,1.915,0,0,0-1.588-.669,2.093,2.093,0,0,0-1.638.649,2.889,2.889,0,0,0-.682,1.73Z" transform="translate(-53.003 -40.993)" fill="#fff"/>
      <path id="Trazado_85583" data-name="Trazado 85583" d="M141.443,76.821a6.825,6.825,0,0,0-2.768-.59,2.579,2.579,0,0,0-1.5.443,1.65,1.65,0,0,0-.643,1.466q0,.925,1.989,1.772a17.02,17.02,0,0,1,2.982,1.546,3.061,3.061,0,0,1,.994,2.667,3.594,3.594,0,0,1-1.423,3.14,6.2,6.2,0,0,1-3.684,1.014,9.206,9.206,0,0,1-1.813-.137q-.643-.138-1.677-.393l.253-2.5a7.228,7.228,0,0,0,1.521.633,5.592,5.592,0,0,0,1.559.232,3.167,3.167,0,0,0,1.667-.453,1.452,1.452,0,0,0,.75-1.319q0-1.043-2.086-1.978a20.277,20.277,0,0,1-2.982-1.556,2.935,2.935,0,0,1-.9-2.549,3.692,3.692,0,0,1,1.374-3.169,5.5,5.5,0,0,1,3.382-1.024,10.186,10.186,0,0,1,3.255.491Z" transform="translate(-67.387 -37.336)" fill="#fff"/>
      <path id="Trazado_85584" data-name="Trazado 85584" d="M155.246,82.088a8.211,8.211,0,0,1,3.489-.766,4.588,4.588,0,0,1,3.313,1,4.449,4.449,0,0,1,1.014,3.263v3.833l.156,2.26h-2.3a5.379,5.379,0,0,1-.1-.777q-.019-.383-.019-.737a3.278,3.278,0,0,1-1.335,1.3,3.755,3.755,0,0,1-1.8.467,3.9,3.9,0,0,1-2.466-.808,2.641,2.641,0,0,1-1.043-2.208,3.247,3.247,0,0,1,.458-1.794,2.976,2.976,0,0,1,1.189-1.074,5.274,5.274,0,0,1,1.618-.493,12.747,12.747,0,0,1,1.823-.128h1.442a2.221,2.221,0,0,0-.536-1.68,2.472,2.472,0,0,0-1.725-.5,4.717,4.717,0,0,0-1.608.285,5.653,5.653,0,0,0-1.491.816Zm3.06,7.921a2.189,2.189,0,0,0,1.813-.89,2.547,2.547,0,0,0,.439-.95A5.063,5.063,0,0,0,160.684,87h-1.13a5.286,5.286,0,0,0-2.066.356,1.376,1.376,0,0,0-.839,1.4,1.06,1.06,0,0,0,.448.94,2.107,2.107,0,0,0,1.209.306" transform="translate(-77.705 -40.992)" fill="#fff"/>
      <path id="Trazado_85585" data-name="Trazado 85585" d="M195.8,91.92h-2.475V90.544a4.953,4.953,0,0,1-1.491,1.2,3.963,3.963,0,0,1-1.842.427,3.053,3.053,0,0,1-2.563-1.083,4.567,4.567,0,0,1-.848-2.895V81.8H189.2v5.4a6.249,6.249,0,0,0,.293,2.123,1.317,1.317,0,0,0,1.4.787,1.828,1.828,0,0,0,1.783-1.042,5.148,5.148,0,0,0,.516-2.319V81.8H195.8Z" transform="translate(-94.052 -41.232)" fill="#fff"/>
      <line id="Línea_423" data-name="Línea 423" x2="113.644" transform="translate(0 55.585)" fill="none" stroke="#e72431" stroke-width="1.834"/>
      <path id="Trazado_85586" data-name="Trazado 85586" d="M114.58,14.513a14.487,14.487,0,0,0-.862-4.937H105V.861a14.555,14.555,0,0,0-9.9.01v8.7H86.417a14.555,14.555,0,0,0,.009,9.9H95.1v8.679a14.562,14.562,0,0,0,9.9.01V19.475h8.707a14.47,14.47,0,0,0,.871-4.962" transform="translate(-43.126 0.001)" fill="#e72431"/>
      <path id="Trazado_85587" data-name="Trazado 85587" d="M158.554,16.744a7.852,7.852,0,0,0-4.729-2.437,8.491,8.491,0,0,0,4.5-2.479,6.841,6.841,0,0,0,1.5-4.646,5.869,5.869,0,0,0-2.853-5.5A13.994,13.994,0,0,0,149.824.014H131.365a16.7,16.7,0,0,1-.126,29.084h17.168a20.2,20.2,0,0,0,8.792-1.563q3.166-1.561,3.166-6.52a6.222,6.222,0,0,0-1.813-4.271M142.033,5.514h3.043a5.174,5.174,0,0,1,2.749.667,2.35,2.35,0,0,1,1.084,2.167,2.26,2.26,0,0,1-1.146,2.167,6.1,6.1,0,0,1-2.938.624h-2.791Zm5.937,16.875a5.955,5.955,0,0,1-3.021.709h-2.917V17.139h3a6.288,6.288,0,0,1,3.042.625A2.43,2.43,0,0,1,149.2,20.1a2.443,2.443,0,0,1-1.23,2.291" transform="translate(-66.154 -0.007)" fill="#fff"/>
      <path id="Trazado_85588" data-name="Trazado 85588" d="M68.823,29.1A16.7,16.7,0,0,1,68.7.014H58.351V10.056H50.892V.014H39.726V29.1H50.892V18.639h7.459V29.1Z" transform="translate(-20.025 -0.007)" fill="#fff"/>
      <path id="Trazado_85589" data-name="Trazado 85589" d="M.618,124.011H2.547V127.9H6.4v-3.886H8.333v9.616H6.4v-4.215H2.547v4.215H.618Z" transform="translate(-0.312 -62.511)" fill="#fff"/>
      <path id="Trazado_85590" data-name="Trazado 85590" d="M22.975,128.763a3.812,3.812,0,0,1,2.714,6.39,3.583,3.583,0,0,1-2.714,1.049,3.575,3.575,0,0,1-2.708-1.042,3.733,3.733,0,0,1,2.708-6.4m0,6.006a1.469,1.469,0,0,0,1.378-.7,3.426,3.426,0,0,0,.413-1.755,2.426,2.426,0,0,0-.461-1.5,1.563,1.563,0,0,0-1.33-.614,1.542,1.542,0,0,0-1.316.621,2.44,2.44,0,0,0-.461,1.493,3.462,3.462,0,0,0,.407,1.755,1.453,1.453,0,0,0,1.371.7" transform="translate(-9.713 -64.906)" fill="#fff"/>
      <path id="Trazado_85591" data-name="Trazado 85591" d="M40.715,130.415a6.639,6.639,0,0,0-.813-.228,4.264,4.264,0,0,0-.84-.075,1.512,1.512,0,0,0-.765.186.642.642,0,0,0-.323.6q0,.428,1.019.767a6.752,6.752,0,0,1,1.605.732,1.663,1.663,0,0,1,.586,1.484,1.956,1.956,0,0,1-.861,1.739,3.7,3.7,0,0,1-2.115.58,7.11,7.11,0,0,1-1.02-.076,8.758,8.758,0,0,1-1.075-.228l.111-1.528a4.335,4.335,0,0,0,.9.361,3.467,3.467,0,0,0,.923.121,1.749,1.749,0,0,0,.841-.2.7.7,0,0,0,.372-.669q0-.552-1.6-1.07a1.97,1.97,0,0,1-1.605-1.94,1.882,1.882,0,0,1,.806-1.644,3.357,3.357,0,0,1,1.977-.565,6.037,6.037,0,0,1,.964.062q.372.061,1.047.2Z" transform="translate(-18.169 -64.906)" fill="#fff"/>
      <path id="Trazado_85592" data-name="Trazado 85592" d="M49.629,128.928h1.764v1.006a2.472,2.472,0,0,1,.9-.86,2.679,2.679,0,0,1,1.336-.31,2.561,2.561,0,0,1,2.252,1.032,4.533,4.533,0,0,1,.723,2.66,4.6,4.6,0,0,1-.73,2.673,2.58,2.58,0,0,1-2.287,1.061,2.876,2.876,0,0,1-1.124-.206,2.631,2.631,0,0,1-.957-.773l-.028,3.706H49.629Zm1.846,3.527a3.241,3.241,0,0,0,.388,1.6,1.318,1.318,0,0,0,1.245.7,1.255,1.255,0,0,0,1.19-.7,3.347,3.347,0,0,0,.374-1.6,3.386,3.386,0,0,0-.353-1.585,1.23,1.23,0,0,0-1.183-.674,1.362,1.362,0,0,0-1.239.695,2.962,2.962,0,0,0-.422,1.564" transform="translate(-25.017 -64.906)" fill="#fff"/>
      <rect id="Rectángulo_148828" data-name="Rectángulo 148828" width="1.846" height="1.764" transform="translate(32.975 61.279)" fill="#fff"/>
      <rect id="Rectángulo_148829" data-name="Rectángulo 148829" width="1.846" height="7.094" transform="translate(32.975 64.022)" fill="#fff"/>
      <path id="Trazado_85593" data-name="Trazado 85593" d="M74.744,128.4H73.38v-1.35h1.364v-1.422l1.846-.593v2.015h1.64v1.35H76.59v3.316a1.693,1.693,0,0,0,.186.857.722.722,0,0,0,.682.318,1.481,1.481,0,0,0,.841-.207l.055,1.473a4.976,4.976,0,0,1-1.364.167,2.186,2.186,0,0,1-1.66-.614,2.355,2.355,0,0,1-.585-1.693Z" transform="translate(-36.989 -63.025)" fill="#fff"/>
      <path id="Trazado_85594" data-name="Trazado 85594" d="M85.68,129.3a5.842,5.842,0,0,1,2.466-.537,3.263,3.263,0,0,1,2.342.7,3.1,3.1,0,0,1,.716,2.287v2.686l.111,1.583H89.689a3.747,3.747,0,0,1-.069-.543c-.009-.18-.014-.352-.014-.518a2.293,2.293,0,0,1-.944.913,2.661,2.661,0,0,1-1.274.328,2.777,2.777,0,0,1-1.743-.566,1.848,1.848,0,0,1-.737-1.547,2.254,2.254,0,0,1,.324-1.258,2.093,2.093,0,0,1,.84-.753,3.728,3.728,0,0,1,1.144-.346,8.969,8.969,0,0,1,1.288-.091h1.02a1.553,1.553,0,0,0-.379-1.178,1.766,1.766,0,0,0-1.219-.351,3.341,3.341,0,0,0-1.137.2,3.969,3.969,0,0,0-1.054.572Zm2.162,5.552a1.55,1.55,0,0,0,1.282-.624,1.784,1.784,0,0,0,.31-.666,3.5,3.5,0,0,0,.089-.818h-.8a3.748,3.748,0,0,0-1.46.25.962.962,0,0,0-.593.984.738.738,0,0,0,.317.658,1.5,1.5,0,0,0,.853.215" transform="translate(-42.8 -64.906)" fill="#fff"/>
      <rect id="Rectángulo_148830" data-name="Rectángulo 148830" width="1.846" height="9.646" transform="translate(50.107 61.47)" fill="#fff"/>
      <path id="Trazado_85595" data-name="Trazado 85595" d="M116.734,124.01H120.1a4.306,4.306,0,0,1,2.169.531,2.354,2.354,0,0,1,.407,3.355,2.364,2.364,0,0,1-1.392.73,2.586,2.586,0,0,1,1.6.716,2.041,2.041,0,0,1,.606,1.5,2.294,2.294,0,0,1-1.047,2.191,4.671,4.671,0,0,1-2.341.592h-3.361Zm1.928,3.886h.786a3,3,0,0,0,1.3-.249.927.927,0,0,0,.523-.922.954.954,0,0,0-.5-.972,3.346,3.346,0,0,0-1.364-.228h-.744Zm0,4.215h.91a3.1,3.1,0,0,0,1.4-.29,1.064,1.064,0,0,0,.579-1.046,1.186,1.186,0,0,0-.55-1.143,2.968,2.968,0,0,0-1.433-.3h-.91Z" transform="translate(-58.843 -62.51)" fill="#fff"/>
      <path id="Trazado_85596" data-name="Trazado 85596" d="M133.374,128.928h1.64v1.612a2.3,2.3,0,0,1,.654-1.185,1.751,1.751,0,0,1,1.316-.591c.092,0,.182,0,.268.007a1.505,1.505,0,0,1,.3.048v1.86a.981.981,0,0,0-.337-.11,2.729,2.729,0,0,0-.49-.042,1.222,1.222,0,0,0-1.13.641,4.828,4.828,0,0,0-.372,2.253v2.6h-1.845Z" transform="translate(-67.23 -64.906)" fill="#fff"/>
      <rect id="Rectángulo_148831" data-name="Rectángulo 148831" width="1.846" height="1.764" transform="translate(71.613 61.279)" fill="#fff"/>
      <rect id="Rectángulo_148832" data-name="Rectángulo 148832" width="1.846" height="7.094" transform="translate(71.613 64.022)" fill="#fff"/>
      <path id="Trazado_85597" data-name="Trazado 85597" d="M152.1,128.4h-1.363v-1.35H152.1v-1.422l1.846-.593v2.015h1.64v1.35h-1.64v3.316a1.682,1.682,0,0,0,.187.857.72.72,0,0,0,.681.318,1.475,1.475,0,0,0,.84-.207l.055,1.473a4.973,4.973,0,0,1-1.364.167,2.185,2.185,0,0,1-1.66-.614,2.356,2.356,0,0,1-.586-1.693Z" transform="translate(-75.983 -63.025)" fill="#fff"/>
      <path id="Trazado_85598" data-name="Trazado 85598" d="M163.035,129.3a5.847,5.847,0,0,1,2.466-.537,3.26,3.26,0,0,1,2.342.7,3.1,3.1,0,0,1,.717,2.287v2.686l.11,1.583h-1.625a3.68,3.68,0,0,1-.068-.543c-.009-.18-.014-.352-.014-.518a2.3,2.3,0,0,1-.944.913,2.665,2.665,0,0,1-1.274.328,2.776,2.776,0,0,1-1.743-.566,1.846,1.846,0,0,1-.737-1.547,2.254,2.254,0,0,1,.324-1.258,2.09,2.09,0,0,1,.84-.753,3.721,3.721,0,0,1,1.143-.346,8.985,8.985,0,0,1,1.288-.091h1.02a1.551,1.551,0,0,0-.379-1.178,1.762,1.762,0,0,0-1.219-.351,3.345,3.345,0,0,0-1.137.2,3.974,3.974,0,0,0-1.053.572Zm2.163,5.552a1.594,1.594,0,0,0,.737-.166,1.578,1.578,0,0,0,.544-.458,1.761,1.761,0,0,0,.309-.666,3.492,3.492,0,0,0,.09-.818h-.8a3.749,3.749,0,0,0-1.46.25.962.962,0,0,0-.592.984.741.741,0,0,0,.316.658,1.5,1.5,0,0,0,.855.215" transform="translate(-81.793 -64.906)" fill="#fff"/>
      <path id="Trazado_85599" data-name="Trazado 85599" d="M178.338,128.928h1.749v.965a2.683,2.683,0,0,1,1.02-.862,3.145,3.145,0,0,1,1.337-.268,2.165,2.165,0,0,1,1.811.757,3.17,3.17,0,0,1,.6,2.025v4.477h-1.846v-3.787a4.347,4.347,0,0,0-.207-1.488.93.93,0,0,0-.991-.55,1.292,1.292,0,0,0-1.261.73,3.588,3.588,0,0,0-.365,1.625v3.471h-1.846Z" transform="translate(-89.896 -64.906)" fill="#fff"/>
      <rect id="Rectángulo_148833" data-name="Rectángulo 148833" width="1.846" height="1.764" transform="translate(96.713 61.279)" fill="#fff"/>
      <rect id="Rectángulo_148834" data-name="Rectángulo 148834" width="1.846" height="7.094" transform="translate(96.713 64.022)" fill="#fff"/>
      <path id="Trazado_85600" data-name="Trazado 85600" d="M206.613,130.457a2.723,2.723,0,0,0-.557-.2,3.207,3.207,0,0,0-.7-.061,1.675,1.675,0,0,0-1.364.621,2.493,2.493,0,0,0-.509,1.632,2.7,2.7,0,0,0,.489,1.678,1.682,1.682,0,0,0,1.426.643,2.735,2.735,0,0,0,.723-.1,5.262,5.262,0,0,0,.7-.245l.083,1.542a4.608,4.608,0,0,1-.827.18,8.409,8.409,0,0,1-1.02.055,3.267,3.267,0,0,1-2.59-1.035,3.973,3.973,0,0,1-.909-2.719,3.877,3.877,0,0,1,.909-2.644,3.172,3.172,0,0,1,2.521-1.041,6.269,6.269,0,0,1,1.791.234Z" transform="translate(-101.6 -64.906)" fill="#fff"/>
      <path id="Trazado_85601" data-name="Trazado 85601" d="M217.82,128.763a3.811,3.811,0,0,1,2.714,6.39,4.036,4.036,0,0,1-5.421.006,3.733,3.733,0,0,1,2.707-6.4m0,6.006a1.47,1.47,0,0,0,1.378-.7,3.432,3.432,0,0,0,.414-1.755,2.426,2.426,0,0,0-.462-1.5,1.564,1.564,0,0,0-1.33-.614,1.543,1.543,0,0,0-1.316.621,2.442,2.442,0,0,0-.461,1.493,3.467,3.467,0,0,0,.406,1.755,1.453,1.453,0,0,0,1.371.7" transform="translate(-107.929 -64.906)" fill="#fff"/>
      <path id="Trazado_85602" data-name="Trazado 85602" d="M168.042,123.4l-1.036,1.823h1.144l1.71-1.823Z" transform="translate(-84.183 -62.202)" fill="#fff"/>
    </g>
  </g>
  <rect id="Rectángulo_148850" data-name="Rectángulo 148850" width="114" height="31" rx="15.5" transform="translate(35 107)" fill="#fff"/>
  <text id="Plan_de_Salud" data-name="Plan de Salud" transform="translate(92 128)" fill="#0d3e91" font-size="16" font-family="Assistant" font-weight="600"><tspan x="-46" y="0">Plan de Salud</tspan></text>
</svg>
